
nColumns=19
nRows=56
DataType=double
version=3
OpenSimVersion=4.4-2022-10-11-798caa840
endheader
time	ground_force_calcn_r_vx	ground_force_calcn_r_vy	ground_force_calcn_r_vz	ground_force_calcn_r_px	ground_force_calcn_r_py	ground_force_calcn_r_pz	ground_force_calcn_r_mx	ground_force_calcn_r_my	ground_force_calcn_r_mz	ground_force_calcn_l_vx	ground_force_calcn_l_vy	ground_force_calcn_l_vz	ground_force_calcn_l_px	ground_force_calcn_l_py	ground_force_calcn_l_pz	ground_force_calcn_l_mx	ground_force_calcn_l_my	ground_force_calcn_l_mz
0	1.54825	64.5025	4.11172	0.0827297	0	-0.155583	0.00643166	0.267954	0.0170807	0	0	0	0	0	0	0	0	0
0.01	-0.479971	92.53060000000001	4.33383	0.0905668	0	-0.154963	-0.00160773	0.309945	0.0145168	0	0	0	0	0	0	0	0	0
0.02	-3.6372	125.607	4.34506	0.0973074	0	-0.15439	-0.0103931	0.358915	0.0124157	0	0	0	0	0	0	0	0	0
0.03	-8.074299999999999	163.574	4.04978	0.102594	0	-0.153903	-0.0202725	0.410693	0.010168	0	0	0	0	0	0	0	0	0
0.04	-13.7692	206.08	3.33328	0.107032	0	-0.153442	-0.0309306	0.46293	0.00748774	0	0	0	0	0	0	0	0	0
0.05	-20.5346	252.573	2.07092	0.110937	0	-0.152968	-0.0418403	0.5146309999999999	0.0042196	0	0	0	0	0	0	0	0	0
0.06	-28.0916	302.283	0.151188	0.114477	0	-0.152461	-0.0525827	0.565822	0.000282999	0	0	0	0	0	0	0	0	0
0.07000000000000001	-36.1135	354.253	-2.49045	0.117751	0	-0.151921	-0.06291860000000001	0.617195	-0.00433897	0	0	0	0	0	0	0	0	0
0.08	-44.2385	407.392	-5.84287	0.120809	0	-0.151355	-0.07273780000000001	0.669842	-0.009606959999999999	0	0	0	0	0	0	0	0	0
0.09	-52.0891	460.516	-9.805569999999999	0.123672	0	-0.150784	-0.0820135	0.725075	-0.0154387	0	0	0	0	0	0	0	0	0
0.1	-59.3026	512.41	-14.1934	0.126347	0	-0.150229	-0.0907423	0.784067	-0.0217181	0	0	0	0	0	0	0	0	0
0.11	-65.5474	561.907	-18.7574	0.128832	0	-0.149715	-0.0988325	0.847244	-0.0282824	0	0	0	0	0	0	0	0	0
0.12	-70.5421	607.966	-23.2289	0.131122	0	-0.149259	-0.105889	0.9126030000000001	-0.0348683	0	0	0	0	0	0	0	0	0
0.13	-74.0847	649.696	-27.3648	0.133219	0	-0.148876	-0.111144	0.9746899999999999	-0.0410533	0	0	0	0	0	0	0	0	0
0.14	-76.0575	686.338	-30.9762	0.13513	0	-0.14857	-0.113693	1.02596	-0.0463043	0	0	0	0	0	0	0	0	0
0.15	-76.41970000000001	717.248	-33.9429	0.136867	0	-0.148344	-0.11284	1.05907	-0.0501194	0	0	0	0	0	0	0	0	0
0.16	-75.2085	741.915	-36.2181	0.138447	0	-0.148194	-0.108276	1.06812	-0.0521427	0	0	0	0	0	0	0	0	0
0.17	-72.538	760.028	-37.828	0.1399	0	-0.148116	-0.100087	1.04868	-0.0521948	0	0	0	0	0	0	0	0	0
0.18	-68.5925	771.552	-38.8567	0.141257	0	-0.148103	-0.0887138	0.997883	-0.0502552	0	0	0	0	0	0	0	0	0
0.19	-63.6015	776.759	-39.4102	0.14256	0	-0.148152	-0.07496319999999999	0.915519	-0.0464505	0	0	0	0	0	0	0	0	0
0.2	-57.8104	776.227	-39.5872	0.143848	0	-0.148263	-0.0598769	0.803974	-0.0410023	0	0	0	0	0	0	0	0	0
0.21	-51.4618	770.795	-39.4656	0.145166	0	-0.148437	-0.0445362	0.667063	-0.0341544	0	0	0	0	0	0	0	0	0
0.22	-44.7793	761.509	-39.1006	0.146557	0	-0.148684	-0.0299186	0.50879	-0.0261245	0	0	0	0	0	0	0	0	0
0.23	-37.9542	749.54	-38.5275	0.148058	0	-0.149011	-0.0168313	0.332392	-0.0170855	0	0	0	0	0	0	0	0	0
0.24	-31.1401	736.095	-37.7679	0.149706	0	-0.149431	-0.00591138	0.139734	-0.00716954	0	0	0	0	0	0	0	0	0
0.25	-24.4526	722.331	-36.8379	0.151533	0	-0.149947	0.00232476	-0.0686737	0.00350227	0	0	0	0	0	0	0	0	0
0.26	-17.9739	709.268	-35.7572	0.153568	0	-0.150561	0.00742818	-0.293124	0.0147776	0	0	0	0	0	0	0	0	0
0.27	-11.7617	697.729	-34.5578	0.155841	0	-0.151264	0.009003489999999999	-0.534104	0.0264536	0	0	0	0	0	0	0	0	0
0.28	-5.8593	688.304	-33.29	0.158377	0	-0.152037	0.0067414	-0.791926	0.0383017	0	0	0	0	0	0	0	0	0
0.29	-0.302247	681.342	-32.0226	0.161204	0	-0.152851	0.000472995	-1.06625	0.0501131	0	0	0	0	0	0	0	0	0
0.3	4.87873	676.9829999999999	-30.8331	0.164345	0	-0.153672	-0.009768209999999999	-1.35546	0.0617342	0	0	0	0	0	0	0	0	0
0.31	9.65889	675.191	-29.7932	0.167825	0	-0.154461	-0.0236899	-1.65601	0.0730724	0	0	0	0	0	0	0	0	0
0.32	14.0201	675.806	-28.9568	0.171664	0	-0.155183	-0.0407092	-1.96228	0.0840798	0	0	0	0	0	0	0	0	0
0.33	17.9488	678.588	-28.3546	0.175879	0	-0.155805	-0.0599612	-2.26694	0.0947233	0	0	0	0	0	0	0	0	0
0.34	21.4355	683.256	-27.9954	0.180483	0	-0.156299	-0.080369	-2.56176	0.104964	0	0	0	0	0	0	0	0	0
0.35	24.4792	689.5170000000001	-27.8718	0.185478	0	-0.156644	-0.100772	-2.8385	0.114738	0	0	0	0	0	0	0	0	0
0.36	27.096	697.1	-27.9635	0.190854	0	-0.156826	-0.120097	-3.08973	0.123942	0	0	0	0	0	0	0	0	0
0.37	29.3281	705.776	-28.2432	0.196584	0	-0.156837	-0.137528	-3.30958	0.13244	0	0	0	0	0	0	0	0	0
0.38	31.2476	715.366	-28.682	0.202621	0	-0.156676	-0.15262	-3.49402	0.140089	0	0	0	0	0	0	0	0	0
0.39	32.95	725.744	-29.254	0.208907	0	-0.156349	-0.165303	-3.64089	0.146761	0	0	0	0	0	0	0	0	0
0.4	34.5391	736.8200000000001	-29.9382	0.215373	0	-0.155868	-0.175771	-3.74971	0.152357	0	0	0	0	0	0	0	0	0
0.41	36.1148	748.515	-30.7203	0.221948	0	-0.15525	-0.184372	-3.82129	0.156832	0	0	0	0	0	0	0	0	0
0.42	37.7674	760.737	-31.5946	0.228558	0	-0.154518	-0.191505	-3.85743	0.160205	0	0	0	0	0	0	0	0	0
0.43	39.5774	773.355	-32.5623	0.23513	0	-0.153698	-0.197566	-3.86051	0.162547	0	0	0	0	0	0	0	0	0
0.44	41.6159	786.204	-33.6241	0.241597	0	-0.152824	-0.202897	-3.83311	0.163933	0	0	0	0	0	0	0	0	0
0.45	43.9422	799.0650000000001	-34.7702	0.247898	0	-0.151931	-0.20776	-3.77801	0.164395	0	0	0	0	0	0	0	0	0
0.46	46.5992	811.652	-35.9689	0.253979	0	-0.151061	-0.212355	-3.69874	0.163912	0	0	0	0	0	0	0	0	0
0.47	49.6109	823.586	-37.1611	0.259798	0	-0.150252	-0.216869	-3.60023	0.162446	0	0	0	0	0	0	0	0	0
0.48	52.9815	834.377	-38.2641	0.265325	0	-0.149541	-0.221531	-3.48877	0.159993	0	0	0	0	0	0	0	0	0
0.49	56.6906	843.415	-39.1793	0.270541	0	-0.148956	-0.22665	-3.37198	0.156639	0	0	0	0	0	0	0	0	0
0.5	60.6903	849.99	-39.7981	0.275443	0	-0.14852	-0.232661	-3.25851	0.152569	0	0	0	0	0	0	0	0	0
0.51	64.9036	853.3339999999999	-40.0133	0.280039	0	-0.148243	-0.240129	-3.15714	0.14804	0	0	0	0	0	0	0	0	0
0.52	69.2223	852.669	-39.7304	0.284345	0	-0.148129	-0.249694	-3.07569	0.143313	1.92188	25.5124	-6.34267	0.737335	0	-0.2489	0.019229	0.25526	-0.06346069999999999
0.53	73.51000000000001	847.266	-38.8776	0.288384	0	-0.148169	-0.262036	-3.02019	0.138584	0.121181	48.3007	-7.42823	0.780264	0	-0.266829	0.000968556	0.38605	-0.0593712
0.54	77.6046	836.489	-37.413	0.292182	0	-0.148352	-0.277784	-2.99419	0.133919	-2.59967	77.0155	-8.554779999999999	0.799944	0	-0.2743	-0.0145674	0.43156	-0.0479372
0.55	81.3177	819.823	-35.3288	0.295766	0	-0.14866	-0.297378	-2.99809	0.129197	-6.42824	112.021	-9.655010000000001	0.811765	0	-0.278228	-0.0257545	0.448807	-0.0386825
